<svg xmlns="http://www.w3.org/2000/svg" width="16" height="17" viewBox="0 0 16 17" fill="none">
  <g clip-path="url(#clip0_518_5064)">
    <path d="M3 0.953125H10.0024L15 5.95313V14.9531C15 15.3175 15 15.6592 15 15.9534C15 16.5057 14.5523 16.9531 14 16.9531H1.99997C1.44783 16.9531 1.00019 16.5059 1.0001 15.9538C1.00005 15.6595 1.00001 15.3177 1.00001 14.9531L1 1.95374C1 1.40169 1.44734 0.954077 1.99939 0.953738L3 0.953125Z" fill="#4C49E9"/>
    <path d="M9.37365 6.97584L6.51917 7.76994C6.1731 7.8597 5.89281 8.18739 5.89281 8.50219V11.2397C5.89281 11.2397 5.68604 11.113 5.22519 11.1722C4.54854 11.2598 4 11.7318 4 12.227C4 12.7222 4.54854 13.0254 5.22519 12.9382C5.90227 12.8515 6.39837 12.3937 6.39837 11.898V9.56085C6.39837 9.34138 6.68897 9.24733 6.68897 9.24733L9.2133 8.52796C9.2133 8.52796 9.4923 8.44292 9.4923 8.67785V10.5555C9.4923 10.5555 9.23479 10.4211 8.77438 10.4722C8.09773 10.5465 7.54876 11.0086 7.54876 11.5038C7.54876 11.999 8.0973 12.3125 8.77438 12.2378C9.45146 12.163 10 11.7013 10 11.2057V7.38298C9.99957 7.0686 9.71928 6.88651 9.37365 6.97584Z" fill="white"/>
    <path d="M10 0.953125L15 5.95312H12C10.8954 5.95312 10 5.05772 10 3.95312V0.953125Z" fill="#8583FF"/>
  </g>
  <defs>
    <clipPath id="clip0_518_5064">
      <rect width="16" height="16" fill="white" transform="translate(0 0.953125)"/>
    </clipPath>
  </defs>
</svg>