<svg xmlns="http://www.w3.org/2000/svg" width="16" height="17" viewBox="0 0 16 17" fill="none">
  <g clip-path="url(#clip0_518_5050)">
    <path d="M3 0.953125H10.0024L15 5.95313V14.9531C15 15.3175 15 15.6592 15 15.9534C15 16.5057 14.5523 16.9531 14 16.9531H1.99997C1.44783 16.9531 1.00019 16.5059 1.0001 15.9538C1.00005 15.6595 1.00001 15.3177 1.00001 14.9531L1 1.95374C1 1.40169 1.44734 0.954077 1.99939 0.953738L3 0.953125Z" fill="#E9494A"/>
    <path opacity="0.9" d="M5.04885 11.072V12.1992H4.38965V9H5.63765C5.82665 9 5.99565 9.0264 6.14425 9.079C6.29285 9.1318 6.41885 9.2054 6.52225 9.3C6.62545 9.3944 6.70425 9.5064 6.75825 9.636C6.81245 9.7658 6.83965 9.9068 6.83965 10.059C6.83965 10.2144 6.81245 10.3542 6.75825 10.4788C6.70522 10.6018 6.62444 10.7108 6.52225 10.7974C6.41885 10.8854 6.29285 10.953 6.14425 11.0006C5.99545 11.0482 5.82665 11.072 5.63765 11.072H5.04885ZM5.04885 10.538H5.63765C5.73145 10.538 5.81245 10.5264 5.88045 10.503C5.94845 10.4794 6.00445 10.447 6.04745 10.405C6.09065 10.3634 6.12265 10.3132 6.14305 10.2546C6.16365 10.196 6.17385 10.1324 6.17385 10.0634C6.17385 9.9946 6.16365 9.9284 6.14305 9.8646C6.12327 9.80217 6.09072 9.74455 6.04745 9.6954C6.00128 9.64421 5.94421 9.60402 5.88045 9.5778C5.81245 9.5486 5.73145 9.5338 5.63765 9.5338H5.04885V10.538ZM7.29225 12.1992V9H8.27665C8.49205 9 8.68925 9.037 8.86865 9.111C9.04825 9.185 9.20205 9.289 9.33025 9.423C9.46157 9.56199 9.56359 9.72598 9.63025 9.9052C9.70185 10.0928 9.73785 10.3008 9.73785 10.5292V10.6742C9.73785 10.9028 9.70225 11.1104 9.63125 11.2972C9.56489 11.4765 9.46245 11.6403 9.33025 11.7784C9.19891 11.9136 9.04053 12.0196 8.86545 12.0894C8.68545 12.1626 8.48685 12.1992 8.27005 12.1992H7.29225ZM7.95145 9.534V11.6696H8.27005C8.53085 11.6696 8.72925 11.5836 8.86545 11.4116C9.00165 11.2394 9.06985 10.9936 9.06985 10.6742V10.5248C9.06985 10.1996 9.00245 9.9532 8.86785 9.7856C8.73285 9.6176 8.53585 9.534 8.27665 9.534H7.95145ZM12.1414 10.892H10.8762V12.1992H10.217V9H12.3V9.534H10.876V10.36H12.1418V10.892H12.1414Z" fill="white"/>
    <path d="M10 0.953125L15 5.95312H12C10.8954 5.95312 10 5.05772 10 3.95312V0.953125Z" fill="#FF7171"/>
  </g>
  <defs>
    <clipPath id="clip0_518_5050">
      <rect width="16" height="16" fill="white" transform="translate(0 0.953125)"/>
    </clipPath>
  </defs>
</svg>