<svg xmlns="http://www.w3.org/2000/svg" width="25" height="24" viewBox="0 0 25 24" fill="none">
  <mask id="mask0_1558_19044" style="mask-type:alpha" maskUnits="userSpaceOnUse" x="0" y="0" width="25" height="25">
    <rect x="0.5" y="0.000610352" width="24" height="24" fill="#D9D9D9"/>
  </mask>
  <g mask="url(#mask0_1558_19044)">
    <path d="M7.65383 21.5582C7.16794 21.5582 6.75481 21.3881 6.41443 21.0477C6.07404 20.7073 5.90385 20.2942 5.90385 19.8083C5.90385 19.3224 6.07404 18.9092 6.41443 18.5689C6.75481 18.2285 7.16794 18.0583 7.65383 18.0583C8.13973 18.0583 8.55287 18.2285 8.89325 18.5689C9.23363 18.9092 9.40383 19.3224 9.40383 19.8083C9.40383 20.2942 9.23363 20.7073 8.89325 21.0477C8.55287 21.3881 8.13973 21.5582 7.65383 21.5582ZM17.3461 21.5582C16.8602 21.5582 16.4471 21.3881 16.1067 21.0477C15.7663 20.7073 15.5961 20.2942 15.5961 19.8083C15.5961 19.3224 15.7663 18.9092 16.1067 18.5689C16.4471 18.2285 16.8602 18.0583 17.3461 18.0583C17.832 18.0583 18.2451 18.2285 18.5855 18.5689C18.9259 18.9092 19.0961 19.3224 19.0961 19.8083C19.0961 20.2942 18.9259 20.7073 18.5855 21.0477C18.2451 21.3881 17.832 21.5582 17.3461 21.5582ZM6.51535 5.75059L9.04998 11.0583H16.05L18.9635 5.75056L6.51535 5.75059ZM5.79613 4.25064H21.5076L16.9365 12.5582H8.59998L7.23073 15.0583H19.0961V16.5582H4.6827L7.54233 11.4083L3.90385 3.75056H2V2.25061H4.84613L5.79613 4.25064Z" fill="white"/>
  </g>
</svg>