<svg xmlns="http://www.w3.org/2000/svg" width="16" height="16" viewBox="0 0 16 16" fill="none">
    <path d="M14 8V3C14 2.44772 13.5523 2 13 2H3C2.44772 2 2 2.44772 2 3V13C2 13.5523 2.44772 14 3 14H8" stroke="#666666" stroke-width="1.5" stroke-linecap="round" stroke-linejoin="round"/>
    <path d="M13.0169 11V14.3333" stroke="#666666" stroke-width="1.5" stroke-linecap="round" stroke-linejoin="round"/>
    <path d="M14.6666 12.6504H11.3333" stroke="#666666" stroke-width="1.5" stroke-linecap="round" stroke-linejoin="round"/>
    <path d="M7.99998 7.66732C8.92045 7.66732 9.66665 6.92113 9.66665 6.00065C9.66665 5.08018 8.92045 4.33398 7.99998 4.33398C7.07951 4.33398 6.33331 5.08018 6.33331 6.00065C6.33331 6.92113 7.07951 7.66732 7.99998 7.66732Z" stroke="#666666" stroke-width="1.5" stroke-linecap="round" stroke-linejoin="round"/>
    <path d="M11 10.3327C11 8.85992 9.65687 7.66602 8 7.66602C6.34313 7.66602 5 8.85992 5 10.3327" stroke="#666666" stroke-width="1.5" stroke-linecap="round" stroke-linejoin="round"/>
</svg>