<svg xmlns="http://www.w3.org/2000/svg" width="16" height="16" viewBox="0 0 16 16" fill="none">
  <path d="M6 2H2.66667C2.29848 2 2 2.29848 2 2.66667V6C2 6.3682 2.29848 6.66667 2.66667 6.66667H6C6.3682 6.66667 6.66667 6.3682 6.66667 6V2.66667C6.66667 2.29848 6.3682 2 6 2Z" stroke="#666666" stroke-width="1.5" stroke-linejoin="round"/>
  <path d="M6 9.33398H2.66667C2.29848 9.33398 2 9.63245 2 10.0007V13.334C2 13.7022 2.29848 14.0007 2.66667 14.0007H6C6.3682 14.0007 6.66667 13.7022 6.66667 13.334V10.0007C6.66667 9.63245 6.3682 9.33398 6 9.33398Z" stroke="#666666" stroke-width="1.5" stroke-linejoin="round"/>
  <path d="M11.6666 6.66667C12.9553 6.66667 14 5.622 14 4.33333C14 3.04467 12.9553 2 11.6666 2C10.378 2 9.33331 3.04467 9.33331 4.33333C9.33331 5.622 10.378 6.66667 11.6666 6.66667Z" stroke="#666666" stroke-width="1.5" stroke-linejoin="round"/>
  <path d="M13.3333 9.33398H9.99998C9.63178 9.33398 9.33331 9.63245 9.33331 10.0007V13.334C9.33331 13.7022 9.63178 14.0007 9.99998 14.0007H13.3333C13.7015 14.0007 14 13.7022 14 13.334V10.0007C14 9.63245 13.7015 9.33398 13.3333 9.33398Z" stroke="#666666" stroke-width="1.5" stroke-linejoin="round"/>
</svg>