<svg xmlns="http://www.w3.org/2000/svg" width="18" height="18" viewBox="0 0 18 18" fill="none">
  <mask id="mask0_1234_879" style="mask-type:alpha" maskUnits="userSpaceOnUse" x="0" y="0" width="18" height="18">
    <rect width="18" height="18" fill="#D9D9D9"/>
  </mask>
  <g mask="url(#mask0_1234_879)">
    <path d="M5.36537 16.1682C5.00096 16.1682 4.69111 16.0406 4.43582 15.7853C4.18053 15.53 4.05289 15.2202 4.05289 14.8557C4.05289 14.4913 4.18053 14.1815 4.43582 13.9262C4.69111 13.6709 5.00096 13.5433 5.36537 13.5433C5.72979 13.5433 6.03965 13.6709 6.29494 13.9262C6.55023 14.1815 6.67787 14.4913 6.67787 14.8557C6.67787 15.2202 6.55023 15.53 6.29494 15.7853C6.03965 16.0406 5.72979 16.1682 5.36537 16.1682ZM12.6346 16.1682C12.2702 16.1682 11.9603 16.0406 11.705 15.7853C11.4497 15.53 11.3221 15.2202 11.3221 14.8557C11.3221 14.4913 11.4497 14.1815 11.705 13.9262C11.9603 13.6709 12.2702 13.5433 12.6346 13.5433C12.999 13.5433 13.3089 13.6709 13.5641 13.9262C13.8194 14.1815 13.9471 14.4913 13.9471 14.8557C13.9471 15.2202 13.8194 15.53 13.5641 15.7853C13.3089 16.0406 12.999 16.1682 12.6346 16.1682ZM4.51151 4.31248L6.41248 8.29326H11.6625L13.8476 4.31246L4.51151 4.31248ZM3.97209 3.18752H15.7557L12.3274 9.41822H6.07498L5.04804 11.2933H13.9471V12.4182H3.13703L5.28174 8.55574L2.55289 2.81246H1.125V1.6875H3.25959L3.97209 3.18752Z" fill="url(#paint0_linear_1234_879)"/>
  </g>
  <defs>
    <linearGradient id="paint0_linear_1234_879" x1="1.125" y1="1.6875" x2="17.8611" y2="4.78204" gradientUnits="userSpaceOnUse">
      <stop stop-color="#CC66FF"/>
      <stop offset="1" stop-color="#6666FF"/>
    </linearGradient>
  </defs>
</svg>