<svg xmlns="http://www.w3.org/2000/svg" width="18" height="19" viewBox="0 0 18 19" fill="none">
  <path d="M8.99998 15.7452L8.17211 15.001C6.92885 13.8731 5.90072 12.9039 5.08774 12.0933C4.27476 11.2827 3.63054 10.5613 3.15506 9.92911C2.67957 9.29689 2.34736 8.72021 2.15842 8.19906C1.96947 7.67791 1.875 7.14907 1.875 6.61253C1.875 5.54812 2.23389 4.65702 2.95168 3.93923C3.66947 3.22144 4.56057 2.86255 5.62498 2.86255C6.27979 2.86255 6.89854 3.01568 7.48123 3.32194C8.06392 3.62819 8.57017 4.06737 8.99998 4.63949C9.42979 4.06737 9.93604 3.62819 10.5187 3.32194C11.1014 3.01568 11.7202 2.86255 12.375 2.86255C13.4394 2.86255 14.3305 3.22144 15.0483 3.93923C15.7661 4.65702 16.125 5.54812 16.125 6.61253C16.125 7.14907 16.0305 7.67791 15.8415 8.19906C15.6526 8.72021 15.3204 9.29689 14.8449 9.92911C14.3694 10.5613 13.7264 11.2827 12.9158 12.0933C12.1053 12.9039 11.0759 13.8731 9.82785 15.001L8.99998 15.7452Z" fill="url(#paint0_linear_1427_1397)"/>
  <defs>
    <linearGradient id="paint0_linear_1427_1397" x1="1.875" y1="2.86255" x2="18.0692" y2="6.14076" gradientUnits="userSpaceOnUse">
      <stop stop-color="#CC66FF"/>
      <stop offset="1" stop-color="#6666FF"/>
    </linearGradient>
  </defs>
</svg>