<svg xmlns="http://www.w3.org/2000/svg" width="16" height="16" viewBox="0 0 16 16" fill="none">
  <path fill-rule="evenodd" clip-rule="evenodd" d="M1.3335 1.25C0.919283 1.25 0.583496 1.58579 0.583496 2V12C0.583496 12.4142 0.919283 12.75 1.3335 12.75H3.5835V13.6667C3.5835 13.9266 3.71809 14.168 3.9392 14.3047C4.16031 14.4413 4.43641 14.4537 4.66891 14.3375L7.84388 12.75H14.6668C15.081 12.75 15.4168 12.4142 15.4168 12V2C15.4168 1.58579 15.081 1.25 14.6668 1.25H1.3335ZM2.0835 11.25V2.75H13.9168V11.25H7.66683C7.5504 11.25 7.43556 11.2771 7.33142 11.3292L5.0835 12.4531V12C5.0835 11.5858 4.74771 11.25 4.3335 11.25H2.0835ZM5.41699 6.5C5.41699 6.08579 5.08121 5.75 4.66699 5.75C4.25278 5.75 3.91699 6.08579 3.91699 6.5V7.5C3.91699 7.91421 4.25278 8.25 4.66699 8.25C5.08121 8.25 5.41699 7.91421 5.41699 7.5V6.5ZM8.00012 5.75C8.41434 5.75 8.75012 6.08579 8.75012 6.5V7.5C8.75012 7.91421 8.41434 8.25 8.00012 8.25C7.58591 8.25 7.25012 7.91421 7.25012 7.5V6.5C7.25012 6.08579 7.58591 5.75 8.00012 5.75ZM12.0835 6.5C12.0835 6.08579 11.7477 5.75 11.3335 5.75C10.9193 5.75 10.5835 6.08579 10.5835 6.5V7.5C10.5835 7.91421 10.9193 8.25 11.3335 8.25C11.7477 8.25 12.0835 7.91421 12.0835 7.5V6.5Z" fill="#0061FF"/>
</svg>