<svg width="36" height="36" viewBox="0 0 36 36" fill="none" xmlns="http://www.w3.org/2000/svg">
<circle cx="18" cy="18" r="18" fill="#86909C"/>
<path d="M14.5 14C14.5 14.9283 14.8687 15.8185 15.5251 16.4749C16.1815 17.1313 17.0717 17.5 18 17.5C18.9283 17.5 19.8185 17.1313 20.4749 16.4749C21.1313 15.8185 21.5 14.9283 21.5 14C21.5 13.0717 21.1313 12.1815 20.4749 11.5251C19.8185 10.8687 18.9283 10.5 18 10.5C17.0717 10.5 16.1815 10.8687 15.5251 11.5251C14.8687 12.1815 14.5 13.0717 14.5 14Z" fill="white"/>
<path d="M19.1109 18.0879L18 19.1988L16.8891 18.0879C14.2074 18.516 12.0331 20.4674 11.2822 23.0269C10.9712 24.0868 11.8954 25.0004 13 25.0004H23C24.1046 25.0004 25.0288 24.0868 24.7178 23.0269C23.9669 20.4674 21.7926 18.516 19.1109 18.0879ZM18 24.0004L16.8016 22.802L18 19.2035L19.1984 22.8035L18 24.0004Z" fill="white"/>
</svg>
