<svg width="16" height="16" viewBox="0 0 16 16" fill="none" xmlns="http://www.w3.org/2000/svg">
<g clip-path="url(#clip0_2903_10845)">
<path fill-rule="evenodd" clip-rule="evenodd" d="M3.66667 0.583496C2.88426 0.583496 2.25 1.21776 2.25 2.00016V14.0002C2.25 14.7826 2.88427 15.4168 3.66667 15.4168H13C13.7824 15.4168 14.4167 14.7826 14.4167 14.0002V2.00016C14.4167 1.21777 13.7824 0.583496 13 0.583496H3.66667ZM3.75 13.9168V2.0835H12.9167V13.9168H3.75ZM5.66663 9.25012C5.25241 9.25012 4.91663 9.58591 4.91663 10.0001C4.91663 10.4143 5.25241 10.7501 5.66663 10.7501H10.3333C10.7475 10.7501 11.0833 10.4143 11.0833 10.0001C11.0833 9.58591 10.7475 9.25012 10.3333 9.25012H5.66663ZM4.91663 12.0001C4.91663 11.5859 5.25241 11.2501 5.66663 11.2501H7.99996C8.41417 11.2501 8.74996 11.5859 8.74996 12.0001C8.74996 12.4143 8.41417 12.7501 7.99996 12.7501H5.66663C5.25241 12.7501 4.91663 12.4143 4.91663 12.0001ZM5.66663 3.25012C5.25241 3.25012 4.91663 3.58591 4.91663 4.00012V7.33346C4.91663 7.74767 5.25241 8.08346 5.66663 8.08346H10.3333C10.7475 8.08346 11.0833 7.74767 11.0833 7.33346V4.00012C11.0833 3.58591 10.7475 3.25012 10.3333 3.25012H5.66663ZM6.41663 6.58346V4.75012H9.58329V6.58346H6.41663Z" fill="#0061FF"/>
</g>
<defs>
<clipPath id="clip0_2903_10845">
<rect width="16" height="16" fill="white"/>
</clipPath>
</defs>
</svg>
