<svg width="42" height="42" viewBox="0 0 42 42" fill="none" xmlns="http://www.w3.org/2000/svg">
<rect width="42" height="42" rx="4" fill="#F7F8FA"/>
<path fill-rule="evenodd" clip-rule="evenodd" d="M30 14.9047L24.0142 9V14.9047H30ZM27.2657 30.2502V21.004H14.7343V30.2505L27.2657 30.2502ZM20.714 24.4766H18.2963L18.2966 23.3049H20.714V24.4766ZM20.714 26.2128H18.2963L18.2966 25.0411H20.714V26.2128ZM20.714 27.9492H18.2963L18.2966 26.7775H20.714V27.9492ZM17.724 29.6861H15.3069V28.514H17.724V29.6861ZM20.714 29.6861H18.2966V28.514H20.714V29.6861ZM17.724 27.9492H15.3069V26.7775H17.724V27.9492ZM17.724 26.2131H15.3069V25.0414H17.724V26.2131ZM17.724 24.4766H15.3069V23.3049H17.724V24.4766ZM17.724 22.7405H15.3069V21.5688H17.724V22.7405ZM26.6931 29.6857H24.2763L24.276 28.514H26.6931V29.6857ZM26.6931 27.9492H24.2763L24.276 26.7775H26.6931V27.9492ZM26.6931 26.2131H24.2763L24.276 25.0414H26.6931V26.2131ZM26.6931 24.4766H24.2763L24.276 23.3049H26.6931V24.4766ZM26.6931 22.7405H24.2763L24.276 21.5688H26.6931V22.7405ZM23.7037 29.6857H21.2866V28.514H23.7037V29.6857ZM23.7037 27.9492H21.2866V26.7775H23.7037V27.9492ZM23.7037 26.2131H21.2866V25.0414H23.7037V26.2131ZM23.7037 24.4766H21.2866V23.3049H23.7037V24.4766ZM23.7037 22.7405H21.2866V21.5688H23.7037V22.7405ZM20.714 22.7405H18.2966V21.5688H20.714V22.7405ZM28.7797 32.2495H13.2203V19.0053H28.7797V32.2495ZM23.2313 15.6783V9H12V33.4528H30V15.6783H23.2313ZM22.4488 13.0647V12.6026H21.4824V10.6348H20.9502V13.0647H22.4488ZM20.5175 12.6026V13.0647H18.9839V10.6348H20.4685V11.097H19.5161V11.5977H20.3985V12.0423H19.5161V12.6026H20.5175ZM17.5009 13.0471C17.6456 13.0821 17.8067 13.0996 17.9841 13.0996C18.1008 13.0996 18.2105 13.0903 18.3132 13.0716C18.4159 13.0529 18.5034 13.0284 18.5758 12.9981V12.5429C18.4824 12.5756 18.3891 12.6001 18.2957 12.6164C18.2047 12.6304 18.109 12.6374 18.0086 12.6374C17.9012 12.6374 17.8078 12.6258 17.7285 12.6024C17.6514 12.5791 17.5872 12.5382 17.5359 12.4799C17.4845 12.4192 17.446 12.3386 17.4203 12.2383C17.397 12.1356 17.3853 12.0048 17.3853 11.8461C17.3853 11.6967 17.397 11.5718 17.4203 11.4715C17.446 11.3711 17.4845 11.2906 17.5359 11.2299C17.5872 11.1668 17.6526 11.1225 17.732 11.0968C17.8113 11.0688 17.9059 11.0548 18.0156 11.0548C18.1183 11.0548 18.214 11.063 18.3027 11.0793C18.3914 11.0933 18.4731 11.1131 18.5478 11.1388V10.6801C18.3984 10.6265 18.2093 10.5996 17.9806 10.5996C17.8008 10.5996 17.6386 10.6206 17.4939 10.6626C17.3515 10.7047 17.2289 10.7747 17.1262 10.8727C17.0235 10.9708 16.9442 11.1003 16.8881 11.2614C16.8344 11.4201 16.8076 11.6162 16.8076 11.8496C16.8076 12.104 16.8356 12.313 16.8916 12.4764C16.9477 12.6374 17.027 12.7646 17.1297 12.858C17.2324 12.949 17.3562 13.0121 17.5009 13.0471ZM15.1124 11.8287L14.4016 10.6348H15.0214L15.4976 11.5031H15.5186L16.0053 10.6348H16.618L15.8932 11.8077L16.6425 13.0647H16.0088L15.5116 12.1544H15.4906L14.9654 13.0647H14.3491L15.1124 11.8287ZM14.1337 13.0657V12.6035H13.1323V12.0433H14.0147V11.5986H13.1323V11.0979H14.0847V10.6357H12.6001V13.0657H14.1337Z" fill="#4CB134"/>
</svg>
