<svg xmlns="http://www.w3.org/2000/svg" width="16" height="16" viewBox="0 0 16 16" fill="none">
  <path fill-rule="evenodd" clip-rule="evenodd" d="M13.8 8C13.8 11.2033 11.2033 13.8 8 13.8C4.79675 13.8 2.2 11.2033 2.2 8C2.2 4.79675 4.79675 2.2 8 2.2C11.2033 2.2 13.8 4.79675 13.8 8ZM15 8C15 11.866 11.866 15 8 15C4.13401 15 1 11.866 1 8C1 4.13401 4.13401 1 8 1C11.866 1 15 4.13401 15 8ZM8.83366 4.49996C8.83366 4.03973 8.46056 3.66663 8.00033 3.66663C7.54009 3.66663 7.16699 4.03973 7.16699 4.49996C7.16699 4.96019 7.54009 5.33329 8.00033 5.33329C8.46056 5.33329 8.83366 4.96019 8.83366 4.49996ZM7.4999 6.06668C7.16853 6.06668 6.8999 6.33531 6.8999 6.66668C6.8999 6.99805 7.16853 7.26668 7.4999 7.26668H7.56657V10.6666H6.99967C6.63148 10.6666 6.33301 10.9651 6.33301 11.3333C6.33301 11.7015 6.63148 12 6.99967 12H9.33301C9.7012 12 9.99967 11.7015 9.99967 11.3333C9.99967 10.9651 9.7012 10.6666 9.33301 10.6666H8.76657V6.66668C8.76657 6.33531 8.49794 6.06668 8.16657 6.06668H7.4999Z" fill="#0061FF"/>
</svg>