<svg width="16" height="16" viewBox="0 0 16 16" fill="none" xmlns="http://www.w3.org/2000/svg">
<g clip-path="url(#clip0_2088_3058)">
<path fill-rule="evenodd" clip-rule="evenodd" d="M2.80735 6.42257C4.06207 5.38254 5.89797 4.25 8.00002 4.25C10.1021 4.25 11.938 5.38254 13.1927 6.42257C13.8307 6.95141 14.3451 7.47852 14.7004 7.8734C14.8784 8.07132 15.0176 8.2373 15.1135 8.35538C15.1614 8.41445 15.1987 8.46164 15.2245 8.49496L15.2548 8.53432L15.2635 8.54576L15.2662 8.54934L15.2671 8.55059C15.2673 8.55079 15.2678 8.55147 14.6667 9C15.2678 9.44853 15.2676 9.44872 15.2675 9.44893L15.2662 9.45066L15.2635 9.45424L15.2548 9.46568L15.2245 9.50504C15.1987 9.53836 15.1614 9.58555 15.1135 9.64462C15.0176 9.7627 14.8784 9.92868 14.7004 10.1266C14.3451 10.5215 13.8307 11.0486 13.1927 11.5774C11.938 12.6175 10.1021 13.75 8.00002 13.75C5.89797 13.75 4.06207 12.6175 2.80735 11.5774C2.16935 11.0486 1.6549 10.5215 1.29967 10.1266C1.12162 9.92868 0.982422 9.7627 0.886547 9.64462C0.838583 9.58555 0.801379 9.53836 0.775495 9.50504L0.745201 9.46568L0.736534 9.45424L0.733842 9.45066L0.732909 9.44941C0.732756 9.44921 0.732252 9.44853 1.33335 9C0.732252 8.55147 0.732393 8.55128 0.732546 8.55107L0.733842 8.54934L0.736534 8.54576L0.745201 8.53432L0.775495 8.49496C0.801379 8.46164 0.838583 8.41445 0.886547 8.35538C0.982422 8.2373 1.12162 8.07132 1.29967 7.8734C1.6549 7.47852 2.16935 6.95141 2.80735 6.42257ZM1.33335 9L0.732546 8.55107C0.534009 8.81714 0.533715 9.18247 0.732252 9.44853L1.33335 9ZM2.30529 9C2.3396 9.03918 2.37614 9.08039 2.41483 9.1234C2.7343 9.47852 3.19616 9.95141 3.76459 10.4226C4.92273 11.3825 6.42017 12.25 8.00002 12.25C9.57987 12.25 11.0773 11.3825 12.2354 10.4226C12.8039 9.95141 13.2657 9.47852 13.5852 9.1234C13.6239 9.08039 13.6604 9.03918 13.6947 9C13.6604 8.96081 13.6239 8.91961 13.5852 8.8766C13.2657 8.52148 12.8039 8.04859 12.2354 7.57743C11.0773 6.61746 9.57987 5.75 8.00002 5.75C6.42017 5.75 4.92273 6.61746 3.76459 7.57743C3.19616 8.04859 2.7343 8.52148 2.41483 8.8766C2.37614 8.91961 2.3396 8.96082 2.30529 9ZM14.6667 9L15.2675 9.44893C15.466 9.18286 15.4663 8.81753 15.2678 8.55147L14.6667 9Z" fill="#0061FF"/>
<path fill-rule="evenodd" clip-rule="evenodd" d="M5.5835 8.99998C5.5835 7.6653 6.66548 6.58331 8.00016 6.58331C9.33484 6.58331 10.4168 7.6653 10.4168 8.99998C10.4168 10.3347 9.33484 11.4166 8.00016 11.4166C6.66548 11.4166 5.5835 10.3347 5.5835 8.99998ZM8.00016 8.08331C7.49391 8.08331 7.0835 8.49373 7.0835 8.99998C7.0835 9.50623 7.49391 9.91665 8.00016 9.91665C8.50642 9.91665 8.91683 9.50623 8.91683 8.99998C8.91683 8.49373 8.50642 8.08331 8.00016 8.08331Z" fill="#0061FF"/>
</g>
<defs>
<clipPath id="clip0_2088_3058">
<rect width="16" height="16" fill="white"/>
</clipPath>
</defs>
</svg>
