<svg xmlns="http://www.w3.org/2000/svg" width="18" height="19" viewBox="0 0 18 19" fill="none">
  <path d="M8.99998 15.7452L8.17211 15.001C6.92885 13.8731 5.90072 12.9039 5.08774 12.0933C4.27476 11.2827 3.63054 10.5613 3.15506 9.92911C2.67957 9.29689 2.34736 8.72021 2.15842 8.19906C1.96947 7.67791 1.875 7.14907 1.875 6.61253C1.875 5.54812 2.23389 4.65702 2.95168 3.93923C3.66947 3.22144 4.56057 2.86255 5.62498 2.86255C6.27979 2.86255 6.89854 3.01568 7.48123 3.32194C8.06392 3.62819 8.57017 4.06737 8.99998 4.63949C9.42979 4.06737 9.93604 3.62819 10.5187 3.32194C11.1014 3.01568 11.7202 2.86255 12.375 2.86255C13.4394 2.86255 14.3305 3.22144 15.0483 3.93923C15.7661 4.65702 16.125 5.54812 16.125 6.61253C16.125 7.14907 16.0305 7.67791 15.8415 8.19906C15.6526 8.72021 15.3204 9.29689 14.8449 9.92911C14.3694 10.5613 13.7264 11.2827 12.9158 12.0933C12.1053 12.9039 11.0759 13.8731 9.82785 15.001L8.99998 15.7452ZM8.99998 14.225C10.2 13.1452 11.1875 12.2197 11.9625 11.4486C12.7375 10.6774 13.35 10.0075 13.8 9.43874C14.25 8.86999 14.5625 8.36494 14.7375 7.92359C14.9125 7.48224 15 7.04522 15 6.61253C15 5.86253 14.75 5.23753 14.25 4.73753C13.75 4.23753 13.125 3.98753 12.375 3.98753C11.7827 3.98753 11.2353 4.15556 10.7329 4.49162C10.2305 4.82767 9.83268 5.29522 9.5394 5.89427H8.46056C8.16249 5.29042 7.76345 4.82167 7.26345 4.48801C6.76345 4.15436 6.21729 3.98753 5.62498 3.98753C4.87979 3.98753 4.25599 4.23753 3.75358 4.73753C3.25118 5.23753 2.99998 5.86253 2.99998 6.61253C2.99998 7.04522 3.08748 7.48224 3.26248 7.92359C3.43748 8.36494 3.74998 8.86999 4.19998 9.43874C4.64998 10.0075 5.26248 10.6762 6.03748 11.445C6.81248 12.2137 7.79998 13.1404 8.99998 14.225Z" fill="black"/>
</svg>