<svg xmlns="http://www.w3.org/2000/svg" width="16" height="16" viewBox="0 0 16 16" fill="none">
  <path
    d="M6 2H2.66667C2.29848 2 2 2.29848 2 2.66667V6C2 6.3682 2.29848 6.66667 2.66667 6.66667H6C6.3682 6.66667 6.66667 6.3682 6.66667 6V2.66667C6.66667 2.29848 6.3682 2 6 2Z"
    stroke="#666666" stroke-width="1.5" stroke-linejoin="round" />
  <path
    d="M6 9.33594H2.66667C2.29848 9.33594 2 9.6344 2 10.0026V13.3359C2 13.7041 2.29848 14.0026 2.66667 14.0026H6C6.3682 14.0026 6.66667 13.7041 6.66667 13.3359V10.0026C6.66667 9.6344 6.3682 9.33594 6 9.33594Z"
    stroke="#666666" stroke-width="1.5" stroke-linejoin="round" />
  <path
    d="M13.333 2H9.99967C9.63147 2 9.33301 2.29848 9.33301 2.66667V6C9.33301 6.3682 9.63147 6.66667 9.99967 6.66667H13.333C13.7012 6.66667 13.9997 6.3682 13.9997 6V2.66667C13.9997 2.29848 13.7012 2 13.333 2Z"
    stroke="#666666" stroke-width="1.5" stroke-linejoin="round" />
  <path
    d="M13.333 9.33594H9.99967C9.63147 9.33594 9.33301 9.6344 9.33301 10.0026V13.3359C9.33301 13.7041 9.63147 14.0026 9.99967 14.0026H13.333C13.7012 14.0026 13.9997 13.7041 13.9997 13.3359V10.0026C13.9997 9.6344 13.7012 9.33594 13.333 9.33594Z"
    stroke="#666666" stroke-width="1.5" stroke-linejoin="round" />
</svg>