<svg width="32" height="32" viewBox="0 0 32 32" fill="none" xmlns="http://www.w3.org/2000/svg">
<circle cx="16" cy="16" r="16" fill="#F2F3F5"/>
<path d="M14 10H10.6667C10.2985 10 10 10.2985 10 10.6667V14C10 14.3682 10.2985 14.6667 10.6667 14.6667H14C14.3682 14.6667 14.6667 14.3682 14.6667 14V10.6667C14.6667 10.2985 14.3682 10 14 10Z" stroke="#666666" stroke-width="1.5" stroke-linejoin="round"/>
<path d="M14 17.3359H10.6667C10.2985 17.3359 10 17.6344 10 18.0026V21.3359C10 21.7041 10.2985 22.0026 10.6667 22.0026H14C14.3682 22.0026 14.6667 21.7041 14.6667 21.3359V18.0026C14.6667 17.6344 14.3682 17.3359 14 17.3359Z" stroke="#666666" stroke-width="1.5" stroke-linejoin="round"/>
<path d="M21.333 10H17.9997C17.6315 10 17.333 10.2985 17.333 10.6667V14C17.333 14.3682 17.6315 14.6667 17.9997 14.6667H21.333C21.7012 14.6667 21.9997 14.3682 21.9997 14V10.6667C21.9997 10.2985 21.7012 10 21.333 10Z" stroke="#666666" stroke-width="1.5" stroke-linejoin="round"/>
<path d="M21.333 17.3359H17.9997C17.6315 17.3359 17.333 17.6344 17.333 18.0026V21.3359C17.333 21.7041 17.6315 22.0026 17.9997 22.0026H21.333C21.7012 22.0026 21.9997 21.7041 21.9997 21.3359V18.0026C21.9997 17.6344 21.7012 17.3359 21.333 17.3359Z" stroke="#666666" stroke-width="1.5" stroke-linejoin="round"/>
</svg>
