<svg width="18" height="18" viewBox="0 0 18 18" xmlns="http://www.w3.org/2000/svg">
<g id="icon/&#232;&#175;&#173;&#232;&#168;&#128;/&#231;&#153;&#189;&#232;&#137;&#178;">
<path id="Vector" d="M9.69453 9.02655C9.62982 9.22963 9.52816 9.41918 9.39453 9.58559C9.25087 9.76451 9.07311 9.91313 8.87157 10.0228C8.46489 10.2462 7.97846 10.3051 7.56981 10.1793C7.5698 10.1793 7.56979 10.1793 7.56978 10.1793L7.5845 10.1315L9.69453 9.02655ZM9.69453 9.02655L9.69965 9.02783L9.71119 8.97836L9.71364 8.96788M9.69453 9.02655L9.71364 8.96788M9.71364 8.96788C9.71369 8.96777 9.71374 8.96767 9.71379 8.96755C9.71495 8.96506 9.71733 8.95985 9.71901 8.95313L9.6705 8.941M9.71364 8.96788L9.72703 8.91239L9.679 8.8985M9.6705 8.941C9.6725 8.93375 9.67362 8.92675 9.67475 8.91975C9.67587 8.91275 9.677 8.90575 9.679 8.8985M9.6705 8.941L9.7187 8.9543C9.72154 8.944 9.72305 8.93435 9.72412 8.92768C9.72527 8.92049 9.72601 8.91616 9.72713 8.91203C9.72716 8.91195 9.72718 8.91188 9.7272 8.9118L9.679 8.8985M9.6705 8.941C9.6699 8.94341 9.66893 8.94546 9.66793 8.94758C9.66751 8.94848 9.66707 8.9494 9.66666 8.95037L9.742 8.592M9.679 8.8985C9.7085 8.7965 9.729 8.694 9.742 8.592M9.742 8.592L9.7915 8.59907C9.79151 8.59895 9.79153 8.59883 9.79155 8.59871C9.79157 8.59858 9.79158 8.59845 9.7916 8.59832L9.742 8.592ZM9.742 8.592C9.74654 8.5602 9.74889 8.53035 9.75125 8.50024C9.75227 8.48727 9.7533 8.47425 9.7545 8.461L9.742 8.592ZM9.79982 7.66173C9.82066 7.89334 9.82505 8.12613 9.81294 8.35836L11.5232 6.49397L11.5239 6.49488L11.5308 6.4866C11.5349 6.48176 11.5401 6.47594 11.5459 6.46947C11.5591 6.45468 11.5754 6.43649 11.5878 6.41894M9.79982 7.66173C9.79982 7.6618 9.79983 7.66187 9.79983 7.66194L9.75 7.666L9.7998 7.66152C9.7998 7.66159 9.79981 7.66166 9.79982 7.66173ZM9.79982 7.66173C9.79167 7.56166 9.7864 7.46137 9.78403 7.361C9.78868 7.25606 9.80666 7.17901 9.83569 7.13121C9.87287 7.11591 9.93625 7.09929 10.012 7.08301C10.0946 7.06524 10.186 7.04902 10.2616 7.03575C10.2616 7.03575 10.2616 7.03575 10.2616 7.03575L10.253 6.9865C10.67 6.9135 11.18 6.82 11.488 6.458M11.488 6.458L11.5187 6.49747L11.5227 6.49435C11.5228 6.49419 11.523 6.49403 11.5231 6.49387C11.5241 6.49272 11.5251 6.49156 11.5261 6.4904L11.5093 6.47616L11.488 6.458ZM11.488 6.458L11.4925 6.4545C11.4988 6.447 11.5053 6.43975 11.5118 6.43249C11.524 6.41892 11.5363 6.40531 11.547 6.39M11.547 6.39L11.5878 6.41894M11.547 6.39L11.5879 6.41873C11.5879 6.4188 11.5878 6.41887 11.5878 6.41894M11.547 6.39C12.068 5.656 12.036 4.8975 11.4645 4.4095C11.4193 4.37268 11.3724 4.33798 11.324 4.3055M11.5878 6.41894L11.0129 3.95448C10.9561 3.86074 10.9444 3.75928 10.9901 3.61896L10.9902 3.61861C11.0128 3.54704 11.0368 3.48323 11.0611 3.42432M11.324 4.3055L11.3525 4.26445C11.3524 4.26437 11.3523 4.2643 11.3522 4.26422C11.3521 4.26414 11.352 4.26406 11.3519 4.26398L11.324 4.3055ZM11.324 4.3055C10.9875 4.0715 10.844 3.9065 10.9425 3.6035C10.9715 3.512 11.0025 3.433 11.0335 3.361M11.0335 3.361L11.0165 3.40803C11.0314 3.4134 11.0462 3.41883 11.0611 3.42432M11.0335 3.361C13.3445 4.1955 14.9995 6.4015 14.9995 9C14.9995 9.7225 14.8645 10.4125 14.631 11.054M11.0335 3.361L11.0794 3.38077C11.0733 3.39501 11.0672 3.40951 11.0611 3.42432M11.0611 3.42432L14.631 11.054M14.631 11.054C14.536 11.079 14.4525 11.0965 14.41 11.0965C14.2045 11.0965 14.056 10.989 13.79 10.782C13.469 10.533 13.07 10.2235 12.421 10.1475L14.631 11.054ZM10.753 5.126L10.724 5.16674C10.7354 5.17484 10.7452 5.18165 10.7537 5.18755C10.7661 5.19614 10.7758 5.20281 10.7834 5.20874C10.8117 5.23294 10.8526 5.27013 10.8623 5.34243C10.8722 5.41666 10.8505 5.53924 10.7208 5.73536C10.6407 5.80159 10.5572 5.81672 10.3186 5.82806L10.321 5.878L10.3186 5.82806C9.99217 5.8436 9.48578 5.86785 9.03711 6.36442L9.03215 6.36813L9.02982 6.37164L9.02887 6.3725L9.0287 6.37232L9.02533 6.37605C9.01855 6.38359 9.01329 6.39108 9.00948 6.39659C9.00875 6.39765 9.00808 6.39862 9.00746 6.39953C9.00466 6.4036 9.00286 6.40621 9.00089 6.40872C8.76076 6.69029 8.6933 6.99827 8.68603 7.29553C8.67542 7.49068 8.68764 7.68631 8.6991 7.86962C8.71162 8.07145 8.72175 8.25916 8.70581 8.42484C8.69557 8.50263 8.68051 8.58208 8.65828 8.6633L8.65825 8.66339C8.63548 8.74719 8.59576 8.82544 8.54155 8.89328C8.48733 8.96113 8.41978 9.01713 8.34307 9.05783L8.34306 9.05783L8.3425 9.05814C8.19185 9.14057 8.01308 9.16563 7.89451 9.12831L7.89424 9.12822C7.8389 9.11115 7.77448 9.07194 7.70142 9.01629C7.62895 8.96108 7.55204 8.89291 7.4712 8.82112L7.47117 8.82109L7.46791 8.8182C7.27075 8.6434 7.01706 8.4185 6.68787 8.28432C6.35456 8.14846 5.94635 8.10641 5.44307 8.29364L5.44304 8.29365C4.94176 8.48047 4.68696 8.79638 4.55903 9.13947C4.43293 9.47763 4.43101 9.84024 4.42952 10.1217L4.4295 10.1257L4.4295 10.1257C4.42875 10.2746 4.42795 10.4155 4.41361 10.5345C4.39905 10.6554 4.37157 10.7426 4.32612 10.7922L4.32611 10.7923C4.23151 10.8957 4.08365 10.9616 3.9121 11.0002C3.75268 11.036 3.57789 11.047 3.41793 11.0451C3.17562 10.3905 3.05102 9.69816 3.05 9C3.05 5.7141 5.71313 3.05 8.999 3.05C9.33809 3.05 9.66916 3.08294 9.99316 3.13821C9.97584 3.18332 9.95889 3.22994 9.94241 3.28116C9.76614 3.82801 9.89257 4.25368 10.0992 4.56567C10.3043 4.87541 10.5878 5.07217 10.7244 5.16704L10.7245 5.16707L10.753 5.126ZM10.753 5.126C10.7627 5.13291 10.7719 5.13927 10.7803 5.14509C10.7943 5.15485 10.8062 5.16311 10.815 5.17L10.753 5.126ZM11.4501 12.4725L11.4502 12.4723C11.5259 12.2741 11.5761 12.0753 11.623 11.8866C11.6659 11.7149 11.7014 11.582 11.738 11.4791C11.7748 11.376 11.8113 11.308 11.8536 11.263C11.9338 11.1779 12.0489 11.1613 12.2986 11.1902C12.6563 11.2323 12.8783 11.4031 13.1468 11.612L13.1469 11.612C13.3959 11.8048 13.6836 12.0152 14.0723 12.0999C13.3211 13.33 12.1492 14.2467 10.7736 14.6794C10.6979 14.5317 10.6229 14.3575 10.5755 14.1886C10.5236 14.0035 10.5075 13.8337 10.5506 13.7124C10.5908 13.601 10.626 13.5355 10.6653 13.4852C10.705 13.4344 10.7506 13.3969 10.8181 13.3418C10.9997 13.1937 11.2512 12.9881 11.4501 12.4725ZM13.1775 11.5725C13.4297 11.7678 13.7145 11.9749 14.0997 12.0546L13.1775 11.5725ZM6.74131 9.64439L6.74135 9.64443L5.82685 9.32439C5.82686 9.32439 5.82687 9.32438 5.82688 9.32438C6.02048 9.25274 6.15368 9.25337 6.28252 9.30642C6.4166 9.36163 6.55033 9.47486 6.74131 9.64439ZM12.4268 10.0978C11.7127 10.0128 11.2796 10.2346 11.0075 10.5638C10.739 10.8886 10.6324 11.3124 10.5555 11.6194L10.5555 11.6194C10.5537 11.6267 10.5519 11.634 10.5501 11.6413C10.5127 11.7917 10.4759 11.9401 10.4224 12.0773L10.4223 12.0776C10.3744 12.2027 10.3317 12.2783 10.2862 12.3354C10.2405 12.3929 10.1905 12.4338 10.1224 12.4892L10.1224 12.4893L10.1222 12.4894C9.94374 12.6353 9.69483 12.8389 9.51493 13.3421C9.32237 13.8793 9.48198 14.4724 9.66688 14.9078C9.44735 14.9333 9.22548 14.95 8.9995 14.95C6.85718 14.95 4.98443 13.8136 3.93651 12.114C4.35532 12.0529 4.80774 11.8951 5.13739 11.5348C5.52494 11.1125 5.5275 10.562 5.52947 10.1373L5.5295 10.1313C5.5295 10.1312 5.5295 10.1312 5.5295 10.1312L12.4268 10.0978ZM9.734 7.3605C9.739 7.244 9.76 7.1505 9.802 7.0915L9.734 7.3605ZM9 1.95C5.11239 1.95 1.95 5.11239 1.95 9C1.95 12.8876 5.11239 16.05 9 16.05C12.8876 16.05 16.05 12.8876 16.05 9C16.05 5.11239 12.8876 1.95 9 1.95Z" stroke="white" stroke-width="0.1"/>
</g>
</svg>
