<svg xmlns="http://www.w3.org/2000/svg" width="16" height="16" viewBox="0 0 16 16" fill="none">
  <path d="M1.66663 11.6667C1.66663 11.2985 1.9651 11 2.33329 11H13.6666C14.0348 11 14.3333 11.2985 14.3333 11.6667V14H1.66663V11.6667Z" stroke="white" stroke-width="1.33333" stroke-linecap="round" stroke-linejoin="round"/>
  <path d="M14 6H11.3334L9.33337 4L11.3334 2H14" stroke="white" stroke-width="1.33333" stroke-linecap="round" stroke-linejoin="round"/>
  <path d="M2.66671 5.33329C3.40309 5.33329 4.00004 4.73634 4.00004 3.99996C4.00004 3.26358 3.40309 2.66663 2.66671 2.66663C1.93033 2.66663 1.33337 3.26358 1.33337 3.99996C1.33337 4.73634 1.93033 5.33329 2.66671 5.33329Z" stroke="white" stroke-width="1.33333"/>
  <path d="M4 4H9.33333" stroke="white" stroke-width="1.33333" stroke-linecap="round" stroke-linejoin="round"/>
  <path d="M3.33337 5.33337L6.00004 11" stroke="white" stroke-width="1.33333" stroke-linecap="round" stroke-linejoin="round"/>
</svg>