<svg xmlns="http://www.w3.org/2000/svg" width="48" height="48" viewBox="0 0 48 48" fill="none">
  <path d="M29.626 2.40002L40.2004 12.8316H29.626V2.40002ZM25.5946 27.672H35.3692V26.6748H25.5952V27.672H25.5946ZM25.5946 30.7398H35.3692V29.742H25.5952V30.7398H25.5946ZM13.231 24.6048H23.005V23.607H13.2316V24.6048H13.231ZM13.231 27.672H23.005V26.6748H13.2316V27.672H13.231ZM25.5946 39.942H35.3692V32.8098H25.5952V39.942H25.5946ZM13.231 38.9448H23.005V39.9426H13.2316V38.9448H13.231ZM13.231 36.8748H23.005V35.8776H13.2316V36.8754L13.231 36.8748ZM13.231 30.7404H23.005V29.742H13.2316V30.7398L13.231 30.7404ZM13.231 33.8076H23.005V32.8104H13.2316V33.8076H13.231ZM25.5946 24.6054H35.3692V23.6076H25.5952V24.6054H25.5946ZM15.5554 6.13503H15.8086C15.9706 6.12963 16.0918 6.16322 16.1716 6.23582C16.2514 6.30902 16.3036 6.45422 16.3294 6.67142C16.3546 6.88922 16.3654 7.21263 16.3636 7.64162C16.366 8.07002 16.3546 8.39342 16.3294 8.61123C16.3042 8.82842 16.2514 8.97363 16.1716 9.04682C16.0918 9.11882 15.9706 9.15303 15.8086 9.14763H15.5554V6.13563V6.13503ZM11.8282 6.13503H12.0682C12.229 6.13503 12.3514 6.18302 12.4348 6.27902C12.5188 6.37682 12.5608 6.52382 12.5608 6.72302C12.5608 6.92462 12.5188 7.07342 12.4348 7.16883C12.3514 7.26482 12.229 7.31163 12.0682 7.31103H11.8282V6.13503ZM28.2418 2.40002V14.199H40.2004V45.6H8.40039V2.40002H28.2418ZM10.5562 43.4736H38.0446V20.0766H10.5562V43.4736ZM18.2194 10.0512H19.4914V8.06582H21.01V7.08182H19.492V6.25623H21.1132V5.23142H18.2194V10.0512ZM14.2822 10.0512H16.1302C16.6126 10.0452 16.9642 9.93003 17.185 9.70683C17.4058 9.48423 17.545 9.19082 17.6032 8.82783C17.6621 8.43532 17.6866 8.0384 17.6764 7.64162C17.6867 7.24485 17.6622 6.84793 17.6032 6.45542C17.545 6.09182 17.4058 5.79842 17.185 5.57522C16.9642 5.35322 16.6126 5.23742 16.1302 5.23142H14.2822V10.0512ZM10.5562 10.0512H11.8282V8.21402H12.274C12.7924 8.21342 13.1884 8.08682 13.4614 7.83482C13.7344 7.58282 13.8718 7.20962 13.8742 6.71583C13.8766 6.28442 13.7626 5.93162 13.534 5.65682C13.3054 5.38202 12.949 5.23982 12.4654 5.23082H10.5562V10.0506V10.0512Z" fill="#E73535"/>
</svg>