<svg width="42" height="42" viewBox="0 0 42 42" fill="none" xmlns="http://www.w3.org/2000/svg">
<rect width="42" height="42" rx="4" fill="#F7F8FA"/>
<path d="M24.0145 9L30 14.9047H24.0145V9ZM21.7326 23.3049H27.2654V22.7405H21.7329L21.7326 23.3049ZM21.7326 25.0414H27.2654V24.4766H21.7329L21.7326 25.0414ZM14.7343 21.5688H20.2668V21.004H14.7346L14.7343 21.5688ZM14.7343 23.3049H20.2668V22.7405H14.7346L14.7343 23.3049ZM21.7326 30.2502H27.2654V26.2131H21.7329L21.7326 30.2502ZM14.7343 29.6857H20.2668V30.2505H14.7346L14.7343 29.6857ZM14.7343 28.514H20.2668V27.9496H14.7346L14.7343 28.514ZM14.7343 25.0417H20.2668V24.4766H14.7346L14.7343 25.0417ZM14.7343 26.7779H20.2668V26.2134H14.7346L14.7343 26.7779ZM21.7326 21.5691H27.2654V21.0043H21.7329L21.7326 21.5691ZM16.05 11.1142H16.1933C16.285 11.1111 16.3536 11.1301 16.3988 11.1712C16.444 11.2126 16.4735 11.2948 16.4881 11.4178C16.5024 11.5411 16.5085 11.7241 16.5075 11.9669C16.5088 12.2094 16.5024 12.3925 16.4881 12.5158C16.4738 12.6387 16.444 12.7209 16.3988 12.7623C16.3536 12.8031 16.285 12.8225 16.1933 12.8194H16.05V11.1142ZM13.9403 11.1142H14.0761C14.1671 11.1142 14.2364 11.1413 14.2836 11.1957C14.3312 11.251 14.3549 11.3342 14.3549 11.447C14.3549 11.5611 14.3312 11.6453 14.2836 11.6993C14.2364 11.7537 14.1671 11.7802 14.0761 11.7798H13.9403V11.1142ZM23.231 9V15.6787H30V33.4528H12V9H23.231ZM13.2203 32.2492H28.7797V19.0056H13.2203V32.2492ZM17.5579 13.3309H18.2779V12.2071H19.1375V11.6501H18.2783V11.1828H19.1959V10.6027H17.5579V13.3309ZM15.3293 13.3309H16.3754C16.6484 13.3275 16.8474 13.2623 16.9724 13.1359C17.0974 13.0099 17.1762 12.8438 17.2091 12.6384C17.2425 12.4162 17.2564 12.1915 17.2506 11.9669C17.2564 11.7424 17.2425 11.5177 17.2091 11.2955C17.1762 11.0897 17.0974 10.9236 16.9724 10.7973C16.8474 10.6716 16.6484 10.6061 16.3754 10.6027H15.3293V13.3309ZM13.2203 13.3309H13.9403V12.2909H14.1926C14.486 12.2906 14.7102 12.2189 14.8647 12.0763C15.0192 11.9337 15.097 11.7224 15.0984 11.4429C15.0997 11.1987 15.0352 10.999 14.9058 10.8435C14.7764 10.6879 14.5747 10.6074 14.3009 10.6023H13.2203V13.3309Z" fill="#E73535"/>
</svg>
