<svg xmlns="http://www.w3.org/2000/svg" width="20" height="20" viewBox="0 0 20 20" fill="none">
  <mask id="mask0_1223_15429" style="mask-type:alpha" maskUnits="userSpaceOnUse" x="0" y="0" width="20" height="20">
    <rect width="20" height="20" fill="#D9D9D9"/>
  </mask>
  <g mask="url(#mask0_1223_15429)">
    <path d="M8.95031 12.2916H11.0496L10.5785 9.66019C10.8403 9.54801 11.051 9.372 11.2107 9.13215C11.3704 8.8923 11.4503 8.62601 11.4503 8.33327C11.4503 7.9337 11.3085 7.59209 11.0248 7.30844C10.7412 7.02479 10.3995 6.88296 9.99998 6.88296C9.60041 6.88296 9.2588 7.02479 8.97515 7.30844C8.69149 7.59209 8.54967 7.9337 8.54967 8.33327C8.54967 8.62601 8.62953 8.8923 8.78925 9.13215C8.94897 9.372 9.15971 9.54801 9.42146 9.66019L8.95031 12.2916ZM9.99998 17.9005C8.19763 17.4091 6.70538 16.3482 5.52323 14.7179C4.34108 13.0875 3.75 11.2649 3.75 9.24994V4.45509L9.99998 2.11536L16.25 4.45509V9.24994C16.25 11.2649 15.6589 13.0875 14.4767 14.7179C13.2946 16.3482 11.8023 17.4091 9.99998 17.9005ZM9.99998 16.5833C11.4444 16.1249 12.6389 15.2083 13.5833 13.8333C14.5278 12.4583 15 10.9305 15 9.24994V5.31244L9.99998 3.44546L4.99998 5.31244V9.24994C4.99998 10.9305 5.4722 12.4583 6.41665 13.8333C7.36109 15.2083 8.55553 16.1249 9.99998 16.5833Z" fill="#666666"/>
  </g>
</svg>