<svg width="16" height="16" viewBox="0 0 16 16" fill="none" xmlns="http://www.w3.org/2000/svg">
<g clip-path="url(#clip0_2337_4866)">
<path fill-rule="evenodd" clip-rule="evenodd" d="M6.42971 0.583344C6.15581 0.583344 5.90369 0.732652 5.77204 0.972831L4.88921 2.58334H3H1.33337C0.91916 2.58334 0.583374 2.91913 0.583374 3.33334C0.583374 3.74756 0.91916 4.08334 1.33337 4.08334H2.25V14.6667C2.25 15.0809 2.58579 15.4167 3 15.4167H13C13.4142 15.4167 13.75 15.0809 13.75 14.6667V4.08334H14.6667C15.0809 4.08334 15.4167 3.74756 15.4167 3.33334C15.4167 2.91913 15.0809 2.58334 14.6667 2.58334H13H11.1152L10.2531 0.978441C10.1224 0.735134 9.86859 0.583344 9.59241 0.583344H6.42971ZM9.41249 2.58334L9.14392 2.08334H6.87387L6.59979 2.58334H9.41249ZM5.33337 4.08334H3.75V13.9167H12.25V4.08334H10.6667H5.33337ZM6.66663 5.91666C7.08084 5.91666 7.41663 6.25244 7.41663 6.66666V11C7.41663 11.4142 7.08084 11.75 6.66663 11.75C6.25241 11.75 5.91663 11.4142 5.91663 11V6.66666C5.91663 6.25244 6.25241 5.91666 6.66663 5.91666ZM10.0834 6.66666C10.0834 6.25244 9.74759 5.91666 9.33337 5.91666C8.91916 5.91666 8.58337 6.25244 8.58337 6.66666V11C8.58337 11.4142 8.91916 11.75 9.33337 11.75C9.74759 11.75 10.0834 11.4142 10.0834 11V6.66666Z" fill="#0061FF"/>
</g>
<defs>
<clipPath id="clip0_2337_4866">
<rect width="16" height="16" fill="white"/>
</clipPath>
</defs>
</svg>
