<svg width="16" height="16" viewBox="0 0 16 16" fill="none" xmlns="http://www.w3.org/2000/svg">
<path fill-rule="evenodd" clip-rule="evenodd" d="M3 2.75C2.86193 2.75 2.75 2.86193 2.75 3V13C2.75 13.1381 2.86193 13.25 3 13.25H13C13.1381 13.25 13.25 13.1381 13.25 13V3C13.25 2.86193 13.1381 2.75 13 2.75H3ZM1.25 3C1.25 2.0335 2.0335 1.25 3 1.25H13C13.9665 1.25 14.75 2.0335 14.75 3V13C14.75 13.9665 13.9665 14.75 13 14.75H3C2.0335 14.75 1.25 13.9665 1.25 13V3Z" fill="#0061FF"/>
<path fill-rule="evenodd" clip-rule="evenodd" d="M8 4.58334C8.41421 4.58334 8.75 4.91913 8.75 5.33334V10.6667C8.75 11.0809 8.41421 11.4167 8 11.4167C7.58579 11.4167 7.25 11.0809 7.25 10.6667V5.33334C7.25 4.91913 7.58579 4.58334 8 4.58334Z" fill="#0061FF"/>
<path fill-rule="evenodd" clip-rule="evenodd" d="M4.58334 8C4.58334 7.58579 4.91913 7.25 5.33334 7.25H10.6667C11.0809 7.25 11.4167 7.58579 11.4167 8C11.4167 8.41421 11.0809 8.75 10.6667 8.75H5.33334C4.91913 8.75 4.58334 8.41421 4.58334 8Z" fill="#0061FF"/>
</svg>
