<svg width="16" height="16" viewBox="0 0 16 16" fill="none" xmlns="http://www.w3.org/2000/svg">
<path fill-rule="evenodd" clip-rule="evenodd" d="M11.0958 1.46979C10.9551 1.32903 10.7642 1.24996 10.5652 1.25C10.3662 1.25004 10.1754 1.32918 10.0347 1.46999L3.13634 8.37662C2.99589 8.51725 2.91699 8.70788 2.91699 8.90663V11.3333C2.91699 11.7475 3.25278 12.0833 3.66699 12.0833H6.10606C6.30503 12.0833 6.49584 12.0043 6.63651 11.8635L13.5308 4.96625C13.8235 4.67338 13.8235 4.19869 13.5308 3.90582L11.0958 1.46979ZM4.41699 9.21703L10.5656 3.06109L11.9399 4.43603L5.7953 10.5833H4.41699V9.21703ZM2.33301 13.25C1.91879 13.25 1.58301 13.5858 1.58301 14C1.58301 14.4142 1.91879 14.75 2.33301 14.75H14.333C14.7472 14.75 15.083 14.4142 15.083 14C15.083 13.5858 14.7472 13.25 14.333 13.25H2.33301Z" fill="#0061FF"/>
</svg>
