<svg xmlns="http://www.w3.org/2000/svg" width="20" height="20" viewBox="0 0 20 20" fill="none">
  <mask id="mask0_1478_1192" style="mask-type:alpha" maskUnits="userSpaceOnUse" x="0" y="0" width="20" height="20">
    <rect width="20" height="20" fill="#D9D9D9"/>
  </mask>
  <g mask="url(#mask0_1478_1192)">
    <path d="M4.16673 15.0353C4.91673 14.2992 5.78825 13.7194 6.78131 13.2957C7.77437 12.8721 8.84728 12.6603 10.0001 12.6603C11.1528 12.6603 12.2258 12.8721 13.2188 13.2957C14.2119 13.7194 15.0834 14.2992 15.8334 15.0353V4.16673H4.16673V15.0353ZM10.0001 10.8655C10.7522 10.8655 11.3916 10.6021 11.9183 10.0754C12.445 9.54869 12.7084 8.90926 12.7084 8.15712C12.7084 7.405 12.445 6.76558 11.9183 6.23887C11.3916 5.71217 10.7522 5.44881 10.0001 5.44881C9.24792 5.44881 8.60851 5.71217 8.08181 6.23887C7.5551 6.76558 7.29175 7.405 7.29175 8.15712C7.29175 8.90926 7.5551 9.54869 8.08181 10.0754C8.60851 10.6021 9.24792 10.8655 10.0001 10.8655ZM2.91675 17.0834V2.91675H17.0834V17.0834H2.91675ZM5.36862 15.8334H14.6315V15.6571C13.9734 15.0695 13.2514 14.6315 12.4656 14.343C11.6798 14.0545 10.858 13.9103 10.0001 13.9103C9.15284 13.9103 8.33499 14.0532 7.54652 14.339C6.75805 14.6248 6.03208 15.0588 5.36862 15.6411V15.8334ZM10.0001 9.61548C9.59942 9.61548 9.2562 9.47258 8.97039 9.18679C8.6846 8.901 8.54171 8.55778 8.54171 8.15712C8.54171 7.75648 8.6846 7.41327 8.97039 7.12748C9.2562 6.84169 9.59942 6.69879 10.0001 6.69879C10.4007 6.69879 10.7439 6.84169 11.0297 7.12748C11.3155 7.41327 11.4584 7.75648 11.4584 8.15712C11.4584 8.55778 11.3155 8.901 11.0297 9.18679C10.7439 9.47258 10.4007 9.61548 10.0001 9.61548Z" fill="#333333"/>
  </g>
</svg>