<svg xmlns="http://www.w3.org/2000/svg" width="32" height="23" viewBox="0 0 32 23" fill="none">
  <rect width="32" height="23" rx="2" fill="#AEB7CC"/>
  <path fill-rule="evenodd" clip-rule="evenodd" d="M10 7H22C22.5523 7 23 7.44772 23 8V15C23 15.5523 22.5523 16 22 16H10C9.44772 16 9 15.5523 9 15V8C9 7.44772 9.44772 7 10 7ZM8 8C8 6.89543 8.89543 6 10 6H22C23.1046 6 24 6.89543 24 8V15C24 16.1046 23.1046 17 22 17H10C8.89543 17 8 16.1046 8 15V8ZM14.5 12.9169C14.5 13.3056 14.9243 13.5454 15.2576 13.3455L17.7852 11.8289C18.1089 11.6347 18.1091 11.1655 17.7854 10.9713L15.2572 9.45435C14.924 9.25439 14.5 9.49445 14.5 9.88309V12.9169Z" fill="white"/>
</svg>