<svg xmlns="http://www.w3.org/2000/svg" width="16" height="16" viewBox="0 0 16 16">
    <path fill-rule="evenodd" clip-rule="evenodd"
        d="M4.08325 5.41602V7.25H4.66667C5.08088 7.25 5.41667 7.58579 5.41667 8C5.41667 8.41421 5.08088 8.75 4.66667 8.75H4.08325V10.584H4.66667C5.08088 10.584 5.41667 10.9198 5.41667 11.334C5.41667 11.7482 5.08088 12.084 4.66667 12.084H4.08325V13.9173H10.5833V2.08398H4.08325V3.91602H4.66667C5.08088 3.91602 5.41667 4.2518 5.41667 4.66602C5.41667 5.08023 5.08088 5.41602 4.66667 5.41602H4.08325ZM2.58325 12.084V14.0007C2.58325 14.7831 3.21751 15.4173 3.99992 15.4173H13.3333C14.1157 15.4173 14.7499 14.7831 14.7499 14.0007V2.00065C14.7499 1.21825 14.1157 0.583984 13.3333 0.583984H3.99992C3.2175 0.583984 2.58325 1.21825 2.58325 2.00065V3.91602H2C1.58579 3.91602 1.25 4.2518 1.25 4.66602C1.25 5.08023 1.58579 5.41602 2 5.41602H2.58325V7.25H2C1.58579 7.25 1.25 7.58579 1.25 8C1.25 8.41421 1.58579 8.75 2 8.75H2.58325V10.584H2C1.58579 10.584 1.25 10.9198 1.25 11.334C1.25 11.7482 1.58579 12.084 2 12.084H2.58325ZM13.2499 13.9173H12.0833V2.08398H13.2499V13.9173Z" />
</svg>