<svg xmlns="http://www.w3.org/2000/svg" width="16" height="16" viewBox="0 0 16 16" fill="none">
  <path d="M1.66675 11.6667C1.66675 11.2985 1.96522 11 2.33341 11H13.6667C14.0349 11 14.3334 11.2985 14.3334 11.6667V14H1.66675V11.6667Z" stroke="white" stroke-width="1.5" stroke-linecap="round" stroke-linejoin="round"/>
  <path d="M13.9999 6H11.3333L9.33325 4L11.3333 2H13.9999" stroke="white" stroke-width="1.5" stroke-linecap="round" stroke-linejoin="round"/>
  <path d="M2.66659 5.33268C3.40297 5.33268 3.99992 4.73573 3.99992 3.99935C3.99992 3.26297 3.40297 2.66602 2.66659 2.66602C1.93021 2.66602 1.33325 3.26297 1.33325 3.99935C1.33325 4.73573 1.93021 5.33268 2.66659 5.33268Z" stroke="white" stroke-width="1.5"/>
  <path d="M4 4H9.33333" stroke="white" stroke-width="1.5" stroke-linecap="round" stroke-linejoin="round"/>
  <path d="M3.33325 5.33398L5.99992 11.0007" stroke="white" stroke-width="1.5" stroke-linecap="round" stroke-linejoin="round"/>
</svg>