<svg xmlns="http://www.w3.org/2000/svg" width="15" height="15" viewBox="0 0 15 15" >
  <path fill-rule="evenodd" clip-rule="evenodd"
    d="M0.25 2C0.25 1.0335 1.0335 0.25 2 0.25H12C12.9665 0.25 13.75 1.03351 13.75 2V7C13.75 7.41421 13.4142 7.75 13 7.75C12.5858 7.75 12.25 7.41421 12.25 7V2C12.25 1.86192 12.1381 1.75 12 1.75H2C1.86193 1.75 1.75 1.86193 1.75 2V12C1.75 12.1381 1.86192 12.25 2 12.25H7C7.41421 12.25 7.75 12.5858 7.75 13C7.75 13.4142 7.41421 13.75 7 13.75H2C1.03351 13.75 0.25 12.9665 0.25 12V2ZM12.0169 9.25C12.4311 9.25 12.7669 9.58579 12.7669 10V10.8999H13.6667C14.0809 10.8999 14.4167 11.2357 14.4167 11.6499C14.4167 12.0641 14.0809 12.3999 13.6667 12.3999H12.7669V13.3333C12.7669 13.7475 12.4311 14.0833 12.0169 14.0833C11.6027 14.0833 11.2669 13.7475 11.2669 13.3333V12.3999H10.3333C9.91912 12.3999 9.58333 12.0641 9.58333 11.6499C9.58333 11.2357 9.91912 10.8999 10.3333 10.8999H11.2669V10C11.2669 9.58579 11.6027 9.25 12.0169 9.25ZM7 4.08333C6.49374 4.08333 6.08333 4.49374 6.08333 5C6.08333 5.50626 6.49374 5.91667 7 5.91667C7.50626 5.91667 7.91667 5.50626 7.91667 5C7.91667 4.49374 7.50626 4.08333 7 4.08333ZM4.58333 5C4.58333 3.66531 5.66531 2.58333 7 2.58333C8.33469 2.58333 9.41667 3.66531 9.41667 5C9.41667 5.53046 9.24576 6.021 8.956 6.41956C10.0132 7.00687 10.75 8.06184 10.75 9.33333C10.75 9.74755 10.4142 10.0833 10 10.0833C9.58579 10.0833 9.25 9.74755 9.25 9.33333C9.25 8.35538 8.32814 7.41667 7 7.41667C5.67186 7.41667 4.75 8.35538 4.75 9.33333C4.75 9.74755 4.41421 10.0833 4 10.0833C3.58579 10.0833 3.25 9.74755 3.25 9.33333C3.25 8.06184 3.98682 7.00687 5.044 6.41956C4.75424 6.021 4.58333 5.53046 4.58333 5Z"
     />
</svg>