<svg xmlns="http://www.w3.org/2000/svg" width="16" height="16" viewBox="0 0 16 16">
  <path fill-rule="evenodd" clip-rule="evenodd"
    d="M2.66667 1.25C1.88426 1.25 1.25 1.88426 1.25 2.66667V6C1.25 6.78242 1.88427 7.41667 2.66667 7.41667H6C6.78241 7.41667 7.41667 6.78241 7.41667 6V2.66667C7.41667 1.88427 6.78242 1.25 6 1.25H2.66667ZM2.75 5.91667V2.75H5.91667V5.91667H2.75ZM2.66667 8.58398C1.88427 8.58398 1.25 9.21823 1.25 10.0007V13.334C1.25 14.1164 1.88427 14.7507 2.66667 14.7507H6C6.78241 14.7507 7.41667 14.1164 7.41667 13.334V10.0007C7.41667 9.21824 6.78241 8.58398 6 8.58398H2.66667ZM2.75 13.2507V10.084H5.91667V13.2507H2.75ZM8.58337 4.33333C8.58337 2.63046 9.96383 1.25 11.6667 1.25C13.3696 1.25 14.75 2.63046 14.75 4.33333C14.75 6.03621 13.3696 7.41667 11.6667 7.41667C9.96383 7.41667 8.58337 6.03621 8.58337 4.33333ZM11.6667 2.75C10.7923 2.75 10.0834 3.45888 10.0834 4.33333C10.0834 5.20779 10.7923 5.91667 11.6667 5.91667C12.5412 5.91667 13.25 5.20779 13.25 4.33333C13.25 3.45888 12.5412 2.75 11.6667 2.75ZM10 8.58398C9.21763 8.58398 8.58337 9.21824 8.58337 10.0007V13.334C8.58337 14.1164 9.21763 14.7507 10 14.7507H13.3334C14.1158 14.7507 14.75 14.1164 14.75 13.334V10.0007C14.75 9.21824 14.1158 8.58398 13.3334 8.58398H10ZM10.0834 13.2507V10.084H13.25V13.2507H10.0834Z"
     />
</svg>