<svg width="16" height="16" viewBox="0 0 16 16" fill="none" xmlns="http://www.w3.org/2000/svg">
    <path d="M1.66666 11.6667C1.66666 11.2985 1.96514 11 2.33333 11H13.6667C14.0349 11 14.3333 11.2985 14.3333 11.6667V14H1.66666V11.6667Z" stroke="white" stroke-width="1.33333" stroke-linecap="round" stroke-linejoin="round"/>
    <path d="M14 6H11.3333L9.33334 4L11.3333 2H14" stroke="white" stroke-width="1.33333" stroke-linecap="round" stroke-linejoin="round"/>
    <path d="M2.66667 5.33317C3.40305 5.33317 4 4.73622 4 3.99984C4 3.26346 3.40305 2.6665 2.66667 2.6665C1.93029 2.6665 1.33334 3.26346 1.33334 3.99984C1.33334 4.73622 1.93029 5.33317 2.66667 5.33317Z" stroke="white" stroke-width="1.33333"/>
    <path d="M4 4H9.33333" stroke="white" stroke-width="1.33333" stroke-linecap="round" stroke-linejoin="round"/>
    <path d="M3.33334 5.3335L6 11.0002" stroke="white" stroke-width="1.33333" stroke-linecap="round" stroke-linejoin="round"/>
</svg>
