<svg width="16" height="16" viewBox="0 0 16 16" xmlns="http://www.w3.org/2000/svg">
    <path fill-rule="evenodd" clip-rule="evenodd" d="M10.8029 1.46967C10.9436 1.32902 11.1343 1.25 11.3333 1.25H13.9999C14.4141 1.25 14.7499 1.58579 14.7499 2C14.7499 2.41421 14.4141 2.75 13.9999 2.75H11.6439L10.3939 4L11.6439 5.25H13.9999C14.4141 5.25 14.7499 5.58579 14.7499 6C14.7499 6.41421 14.4141 6.75 13.9999 6.75H11.3333C11.1343 6.75 10.9436 6.67098 10.8029 6.53033L9.02259 4.75H4.61059C4.51534 4.99649 4.37457 5.22033 4.19858 5.4112L6.47566 10.25H13.6667C14.4492 10.25 15.0834 10.8843 15.0834 11.6667V14C15.0834 14.4142 14.7476 14.75 14.3334 14.75H1.66675C1.25253 14.75 0.916748 14.4142 0.916748 14V11.6667C0.916748 10.8842 1.55102 10.25 2.33341 10.25H4.81787L2.85291 6.07446C2.79153 6.0799 2.72938 6.08268 2.66659 6.08268C1.51599 6.08268 0.583252 5.14994 0.583252 3.99935C0.583252 2.84876 1.51599 1.91602 2.66659 1.91602C3.55303 1.91602 4.31017 2.46965 4.61109 3.25H9.02259L10.8029 1.46967ZM5.96184 11.75H2.41675V13.25H13.5834V11.75H6.03932C6.01342 11.7513 5.98756 11.7513 5.96184 11.75ZM2.08325 3.99935C2.08325 3.67718 2.34442 3.41602 2.66659 3.41602C2.98875 3.41602 3.24992 3.67718 3.24992 3.99935C3.24992 4.32152 2.98875 4.58268 2.66659 4.58268C2.34442 4.58268 2.08325 4.32152 2.08325 3.99935Z"/>
</svg>