<svg xmlns="http://www.w3.org/2000/svg" width="16" height="16" viewBox="0 0 16 16" fill="none">
  <g clip-path="url(#clip0_326_2263)">
    <path fill-rule="evenodd" clip-rule="evenodd" d="M0.583374 1.69762C0.583374 1.14534 1.00831 0.583984 1.66671 0.583984H14.3334C14.9918 0.583984 15.4167 1.14535 15.4167 1.69762V4.97035C15.4167 5.52264 14.9918 6.08398 14.3334 6.08398H5.41663V7.25375L11.3336 7.25638C11.7477 7.25657 12.0833 7.5923 12.0833 8.00638V9.91602H14.3334C14.9918 9.91602 15.4167 10.4774 15.4167 11.0296V14.3024C15.4167 14.8547 14.9918 15.416 14.3334 15.416H1.66671C1.00832 15.416 0.583374 14.8547 0.583374 14.3024V11.0296C0.583374 10.4774 1.00832 9.91602 1.66671 9.91602H10.5833V8.75605L4.66629 8.75342C4.25221 8.75323 3.91663 8.4175 3.91663 8.00342V6.08398H1.66671C1.00832 6.08398 0.583374 5.52265 0.583374 4.97035V1.69762ZM4.66663 4.58398H13.9167V2.08398H2.08337V4.58398H4.66663ZM11.2887 11.416H2.08337V13.916H13.9167V11.416H11.3779C11.3631 11.4169 11.3483 11.4173 11.3333 11.4173C11.3183 11.4173 11.3035 11.4169 11.2887 11.416ZM5.25 12.666C5.25 12.2518 5.58579 11.916 6 11.916H10C10.4142 11.916 10.75 12.2518 10.75 12.666C10.75 13.0802 10.4142 13.416 10 13.416H6C5.58579 13.416 5.25 13.0802 5.25 12.666ZM6 2.58398C5.58579 2.58398 5.25 2.91977 5.25 3.33398C5.25 3.7482 5.58579 4.08398 6 4.08398H10C10.4142 4.08398 10.75 3.7482 10.75 3.33398C10.75 2.91977 10.4142 2.58398 10 2.58398H6Z" fill="white"/>
  </g>
  <defs>
    <clipPath id="clip0_326_2263">
      <rect width="16" height="16" fill="white"/>
    </clipPath>
  </defs>
</svg>