<svg xmlns="http://www.w3.org/2000/svg" width="122" height="24" viewBox="0 0 122 24" fill="none">
  <path fill-rule="evenodd" clip-rule="evenodd" d="M98.1004 2H96.4365C96.3422 2 96.2656 2.10343 96.2656 2.23185V20.7678C96.2656 20.8962 96.3422 21 96.4365 21H98.1004C98.1949 21 98.2712 20.8962 98.2712 20.7678V2.23185C98.2712 2.10343 98.1949 2 98.1004 2ZM17.8115 2C17.9408 2 18.0452 2.10343 18.0452 2.23185V20.7678C18.0452 20.8962 17.9408 21 17.8115 21H15.536C15.4071 21 15.3023 20.8962 15.3023 20.7678V13.9074C15.3023 13.3302 14.8314 12.8623 14.2505 12.8623H5.79475C5.21382 12.8623 4.7429 13.3302 4.7429 13.9074V20.7678C4.7429 20.8962 4.63811 21 4.50921 21H2.23369C2.10479 21 2 20.8962 2 20.7678V10.3696C2 10.2415 2.10479 10.1374 2.23369 10.1374H14.2505C14.8314 10.1374 15.3023 9.66983 15.3023 9.09263V2.23185C15.3023 2.10343 15.4071 2 15.536 2H17.8115ZM3.83476 2C3.92901 2 4.00565 2.10825 4.00565 2.24185V5.75778C4.00565 5.89138 3.92901 6 3.83476 6H2.17089C2.07664 6 2 5.89138 2 5.75778V2.24185C2 2.10825 2.07664 2 2.17089 2H3.83476ZM55.4243 14.5964C58.4008 13.8662 60.4263 10.9271 60.1363 7.75973C59.8396 4.53019 57.0398 2 53.7619 2H45.3459C45.1436 2 45.0448 2.2558 45.1918 2.40018L47.4896 4.66069C47.5314 4.70199 47.5867 4.72455 47.644 4.72455H53.9269C54.5646 4.72455 55.2056 4.86789 55.7555 5.20247C57.133 6.04101 57.7619 7.61674 57.4595 9.14387C57.1283 10.823 55.641 12.0416 53.923 12.0416H47.568C47.3657 12.0416 47.2669 12.2974 47.4135 12.4418L56.0244 20.9358C56.0659 20.9767 56.1212 21 56.1788 21H59.3433C59.5455 21 59.6444 20.7439 59.498 20.5991L55.0066 16.1694C54.7685 15.9341 54.6744 15.5856 54.7602 15.2583C54.8469 14.9279 55.1024 14.6742 55.4243 14.5964ZM90.0105 3C90.1869 3 90.3019 3.18245 90.2237 3.33822L81.417 20.8696C81.3294 21.0435 81.0782 21.0435 80.9906 20.8696L75.2309 9.40507C75.1971 9.33789 75.1981 9.25852 75.2336 9.19167L76.5656 6.70163C76.6561 6.53269 76.9031 6.53565 76.9889 6.7069L80.351 13.3982C80.5131 13.7206 80.8402 13.9198 81.2031 13.9198C81.5684 13.9198 81.8945 13.7192 82.0559 13.3975L87.2128 3.13008C87.2529 3.05006 87.3355 3 87.4257 3H90.0105ZM67.1192 3C67.2137 3 67.2998 3.05006 67.3416 3.13009L75.1804 18.0903C75.2149 18.1558 75.2149 18.2329 75.1804 18.2984L73.8326 20.8696C73.7416 21.0435 73.4791 21.0435 73.3881 20.8696L64.2013 3.33823C64.1197 3.18245 64.2396 3 64.4236 3H67.1192ZM104.288 14.226C104.288 14.0332 104.459 13.9294 104.57 14.0547L106.234 15.9331C106.272 15.9759 106.294 16.0386 106.294 16.1047V20.7745C106.294 20.8989 106.217 21 106.123 21H104.459C104.365 21 104.288 20.8989 104.288 20.7745V14.226ZM120.102 3C120.23 3 120.333 3.09961 120.333 3.22328V20.7757C120.333 20.9726 120.09 21.0735 119.943 20.9378L104.36 6.59752C104.314 6.55541 104.288 6.49658 104.288 6.43508V3.52778C104.288 3.33024 104.534 3.22963 104.68 3.367L115.853 13.825C116.513 14.4433 117.618 13.9911 117.618 13.1023V3.22328C117.618 3.09961 117.722 3 117.85 3H120.102ZM32.5864 19.3632C28.791 19.3632 25.7032 16.2844 25.7032 12.4997C25.7032 8.71497 28.791 5.63613 32.5864 5.63613C36.3813 5.63613 39.4692 8.71497 39.4692 12.4997C39.4692 16.2844 36.3813 19.3632 32.5864 19.3632ZM32.5864 3C27.333 3 23.0593 7.26131 23.0593 12.4997C23.0593 17.738 27.333 22 32.5864 22C37.8394 22 42.113 17.738 42.113 12.4997C42.113 7.26131 37.8394 3 32.5864 3Z" fill="white"/>
</svg>